PathFileType	4	(X/Y/Z)	C:\Users\86182\Documents\cortex\Trimmed_M1_L10.trc
DataRate	CameraRate	NumFrames	NumMarkers	Units	OrigDataRate	OrigDataStartFrame	OrigNumFrames
100.00	100.00	       98	2	mm	100.00	361	       901
Frame#	Time	gripper			box			
		X1	Y1	Z1	X2	Y2	Z2	

361	3.600	199.26990	195.63376	293.04074	200.89404	194.82143	156.69667	
362	3.610	199.27876	195.63600	293.03571	200.85431	194.81371	156.72461	
363	3.620	199.28267	195.64020	293.03302	200.87022	194.81221	156.73540	
364	3.630	199.28267	195.64020	293.03302	200.89265	194.80235	156.73648	
365	3.640	199.28459	195.64229	293.03168	200.88048	194.79424	156.69168	
366	3.650	199.28999	195.63693	293.03296	201.01033	194.76067	156.65474	
367	3.660	199.28459	195.64229	293.03168	200.96320	194.73647	156.65216	
368	3.670	199.28459	195.64229	293.03168	200.88524	194.82892	156.65366	
369	3.680	199.28459	195.64229	293.03168	200.85338	194.81070	156.70956	
370	3.690	199.28459	195.64229	293.03168	200.94992	194.82819	156.70695	
371	3.700	199.28459	195.64229	293.03168	200.97722	194.82176	156.66510	
372	3.710	199.31384	195.62920	293.03134	200.93121	194.78868	156.72697	
373	3.720	199.29707	195.62782	293.03552	200.95198	194.76437	156.71104	
374	3.730	199.28487	195.57524	293.00858	200.93303	194.75261	156.64731	
375	3.740	199.23372	195.59210	293.01181	201.00574	194.70604	156.60704	
376	3.750	199.27771	195.57845	293.00867	201.02956	194.67143	156.52312	
377	3.760	199.24942	195.57507	292.98099	200.84288	194.56084	156.31087	
378	3.770	199.20480	195.59103	292.91187	200.84015	194.56445	156.29857	
379	3.780	199.14651	195.62515	292.83902	200.81471	194.56682	156.24548	
380	3.790	199.16429	195.64995	292.84052	200.80179	194.55746	156.23912	
381	3.800	199.18298	195.64650	292.84949	200.84302	194.59486	156.24467	
382	3.810	199.16728	195.64301	292.85773	200.84520	194.58124	156.27544	
383	3.820	199.17256	195.60919	292.92184	200.83678	194.55777	156.30522	
384	3.830	199.23131	195.57689	292.93634	200.85036	194.53571	156.37430	
385	3.840	199.31679	195.56906	292.99420	200.90109	194.56096	156.42178	
386	3.850	199.24039	195.55241	293.00381	200.93152	194.56059	156.48070	
387	3.860	199.35278	195.58365	292.96677	200.90721	194.56259	156.43030	
388	3.870	199.33324	195.53688	292.98407	200.91496	194.56053	156.44914	
389	3.880	199.39326	195.54443	292.95935	200.88208	194.55624	156.39468	
390	3.890	199.27036	195.57106	292.92688	200.84044	194.54259	156.34187	
391	3.900	199.29701	195.59438	292.89896	200.84526	194.56665	156.30405	
392	3.910	199.19157	195.62109	292.89651	200.83791	194.55757	156.30775	
393	3.920	199.16643	195.61934	292.89685	200.84590	194.56969	156.29933	
394	3.930	199.16531	195.62225	292.90121	200.84669	194.57162	156.29704	
395	3.940	199.14037	195.59840	292.92679	200.83969	194.55309	156.31993	
396	3.950	199.14293	195.60588	292.93475	200.86006	194.56094	156.35909	
397	3.960	199.12769	195.58986	292.95221	200.87608	194.53911	156.41678	
398	3.970	199.12097	195.59822	292.98773	200.85213	194.53073	156.38741	
399	3.980	199.09735	195.58022	292.98428	200.87518	194.53938	156.41449	
400	3.990	199.12440	195.59377	292.95078	200.86145	194.54677	156.37384	
401	4.000	199.13661	195.60722	292.92877	200.81621	194.57945	156.31604	
402	4.010	199.16739	195.61655	292.91089	200.84126	194.55693	156.31541	
403	4.020	199.17088	195.63048	292.88876	200.84604	194.57593	156.28741	
404	4.030	199.16434	195.63565	292.87592	200.84323	194.57471	156.30005	
405	4.040	199.17061	195.62128	292.90378	200.83688	194.56381	156.30923	
406	4.050	199.16080	195.61664	292.91306	200.85286	194.56645	156.31895	
407	4.060	199.14389	195.59660	292.94040	200.84982	194.53984	156.38922	
408	4.070	199.20529	195.62401	292.93240	200.84656	194.52966	156.37885	
409	4.080	199.21434	195.61427	292.95087	200.87625	194.55820	156.37975	
410	4.090	199.26813	195.62453	292.96021	200.88605	194.54799	156.41843	
411	4.100	199.17648	195.60237	292.92810	200.86166	194.55037	156.36717	
412	4.110	199.16580	195.61420	292.91449	200.85724	194.55840	156.34305	
413	4.120	199.16661	195.61539	292.91269	200.84831	194.56772	156.30777	
414	4.130	199.17943	195.63759	292.87143	200.84587	194.57700	156.28500	
415	4.140	199.17537	195.62831	292.89313	200.85709	194.56732	156.32530	
416	4.150	199.16879	195.63245	292.88391	200.84570	194.57806	156.28259	
417	4.160	199.15918	195.62685	292.89200	200.84480	194.57391	156.30458	
418	4.170	199.16463	195.61327	292.91400	200.85007	194.56587	156.31473	
419	4.180	199.14597	195.61502	292.91006	200.84286	194.56038	156.31174	
420	4.190	199.16032	195.59061	292.93771	200.84656	194.52966	156.37885	
421	4.200	199.11700	195.56252	292.97266	200.85213	194.53073	156.38741	
422	4.210	199.15340	195.57381	292.96704	200.84850	194.53050	156.38091	
423	4.220	199.18878	195.60390	292.96313	200.86250	194.53320	156.40239	
424	4.230	199.16287	195.60347	292.92957	200.85838	194.54257	156.37617	
425	4.240	199.16739	195.61655	292.91089	200.86093	194.56097	156.34503	
426	4.250	199.16661	195.61539	292.91269	200.84656	194.57272	156.29463	
427	4.260	199.17705	195.63170	292.88593	200.84621	194.57486	156.28981	
428	4.270	199.17380	195.62599	292.89664	200.84621	194.57486	156.28981	
429	4.280	199.19463	195.63016	292.88443	200.84686	194.57056	156.29945	
430	4.290	199.19148	195.62006	292.90015	200.86014	194.57153	156.32286	
431	4.300	199.22882	195.62326	292.91833	200.85176	194.53598	156.37643	
432	4.310	199.19774	195.60657	292.92767	200.84421	194.53627	156.36142	
433	4.320	199.17699	195.62326	292.96136	200.85072	194.53046	156.38527	
434	4.330	199.15932	195.60982	292.95093	200.84579	194.54013	156.35693	
435	4.340	199.14539	195.60690	292.93082	200.85536	194.53844	156.37849	
436	4.350	199.12885	195.58250	292.94287	200.83926	194.53357	156.35727	
437	4.360	199.14555	195.61035	292.91815	200.83653	194.54538	156.32896	
438	4.370	199.15910	195.62067	292.90854	200.84094	194.55910	156.31058	
439	4.380	199.16586	195.61589	292.90817	200.84346	194.57112	156.29187	
440	4.390	199.16782	195.61798	292.90689	200.84047	194.55499	156.31769	
441	4.400	199.15857	195.60516	292.92432	200.83365	194.54282	156.32848	
442	4.410	199.16499	195.61301	292.91629	200.83078	194.56050	156.31949	
443	4.420	199.15289	195.60005	292.93286	200.85521	194.54730	156.36086	
444	4.430	199.12146	195.57489	292.95508	200.84142	194.53947	156.38603	
445	4.440	199.15025	195.60762	292.92822	200.86351	194.55789	156.35600	
446	4.450	199.17207	195.61751	292.92331	200.85234	194.53432	156.38081	
447	4.460	199.16960	195.60704	292.92310	200.84525	194.55420	156.32835	
448	4.470	199.18646	195.60939	292.91531	200.85223	194.55560	156.33894	
449	4.480	199.15770	195.60225	292.93250	200.84822	194.54593	156.35020	
450	4.490	199.16739	195.61655	292.91089	200.85207	194.56450	156.32123	
451	4.500	199.17458	195.62715	292.89487	200.84752	194.56578	156.31004	
452	4.510	199.16818	195.61771	292.90915	200.85223	194.55560	156.33894	
453	4.520	199.15910	195.62067	292.90854	200.84966	194.57114	156.30367	
454	4.530	199.15877	195.59779	292.93951	200.84402	194.54507	156.34386	
455	4.540	199.16653	195.61853	292.90866	200.84743	194.55641	156.32820	
456	4.550	199.13972	195.61148	292.92703	200.84554	194.57280	156.31660	
457	4.560	199.15109	195.61206	292.92233	200.84758	194.57393	156.34235	
458	4.570	199.15833	195.61629	292.91437	200.84966	194.55865	156.32805	
